<svg width="25" height="25" viewBox="0 0 25 25" fill="none" xmlns="http://www.w3.org/2000/svg">
<g clip-path="url(#clip0_1206_8675)">
<path d="M3.5 13.5001H9.5V11.5001H3.5V2.34611C3.50001 2.25922 3.52267 2.17384 3.56573 2.09838C3.6088 2.02291 3.67078 1.95997 3.74558 1.91576C3.82037 1.87155 3.9054 1.84759 3.99227 1.84625C4.07915 1.84491 4.16487 1.86623 4.241 1.90811L22.703 12.0621C22.7814 12.1053 22.8468 12.1687 22.8923 12.2457C22.9378 12.3228 22.9618 12.4106 22.9618 12.5001C22.9618 12.5896 22.9378 12.6774 22.8923 12.7545C22.8468 12.8315 22.7814 12.8949 22.703 12.9381L4.241 23.0921C4.16487 23.134 4.07915 23.1553 3.99227 23.154C3.9054 23.1526 3.82037 23.1287 3.74558 23.0844C3.67078 23.0402 3.6088 22.9773 3.56573 22.9018C3.52267 22.8264 3.50001 22.741 3.5 22.6541V13.5001Z" fill="white"/>
</g>
<defs>
<clipPath id="clip0_1206_8675">
<rect width="24" height="24" fill="white" transform="translate(0.5 0.5)"/>
</clipPath>
</defs>
</svg>
