<svg width="141" height="44" viewBox="0 0 141 44" fill="none" xmlns="http://www.w3.org/2000/svg">
<path d="M78.1819 9.08454C79.8788 9.08454 81.293 7.67043 81.293 5.9735C81.293 4.27656 79.8788 2.86243 78.1819 2.86243C76.485 2.86243 75.0709 4.27656 75.0709 5.9735C74.9766 7.67043 76.3907 9.08454 78.1819 9.08454Z" fill="#427D1B"/>
<path d="M37.4559 19.8318C37.0788 20.1145 36.8903 20.8686 37.3616 21.4341C37.7386 21.9054 38.5869 21.9054 38.964 21.5284C39.4353 21.0571 39.5295 20.3973 39.1525 19.926C38.6812 19.4547 37.9271 19.3605 37.4559 19.8318Z" fill="#427D1B"/>
<path d="M44.1484 19.6431C43.5828 18.9833 42.546 18.889 41.792 19.5488C41.2264 20.0201 41.0379 21.1512 41.6977 21.811C42.169 22.4708 43.4886 22.565 43.9599 21.9995C44.6197 21.5282 44.8082 20.3971 44.1484 19.6431Z" fill="#427D1B"/>
<path d="M40.2842 16.5321C40.0015 16.7206 40.0015 17.1919 40.19 17.4746C40.4728 17.7574 40.8498 17.7574 41.1325 17.5689C41.4153 17.3804 41.4153 16.9091 41.2268 16.6263C40.944 16.4378 40.567 16.3436 40.2842 16.5321Z" fill="#427D1B"/>
<path d="M43.4893 23.4141C43.2065 23.6026 43.2065 24.0739 43.3951 24.3567C43.6778 24.6394 44.0549 24.6394 44.3376 24.4509C44.6204 24.2624 44.6204 23.7911 44.4319 23.5083C44.2434 23.2256 43.7721 23.1313 43.4893 23.4141Z" fill="#427D1B"/>
<path d="M25.4831 38.5924C27.1801 38.5924 28.5942 37.1782 28.5942 35.4813C28.5942 33.7843 27.1801 32.3702 25.4831 32.3702C23.7862 32.3702 22.3721 33.7843 22.3721 35.4813C22.3721 37.1782 23.6919 38.5924 25.4831 38.5924Z" fill="#427D1B"/>
<path d="M80.9162 9.74445V28.7878C80.9162 30.2962 79.6906 31.4275 78.1822 31.4275C76.6738 31.4275 75.4482 30.202 75.4482 28.7878V9.74445C76.2024 10.3101 77.1452 10.5929 78.1822 10.5929C79.1249 10.6872 80.0677 10.3101 80.9162 9.74445Z" fill="#2A5650"/>
<path d="M64.4178 9.83869C61.8724 9.83869 59.9869 10.7814 58.667 12.8555V9.93294V9.83869C58.667 8.42458 57.4415 7.29327 56.0274 7.29327C54.6133 7.29327 53.3877 8.42458 53.3877 9.83869V40.8549C53.3877 42.3633 54.6133 43.5889 56.1216 43.5889C57.63 43.5889 58.8556 42.3633 58.8556 40.8549V28.4107C60.364 30.579 62.438 31.616 64.9834 31.616C70.3571 31.616 73.4681 27.1852 73.4681 20.9631C73.3738 13.8925 69.6029 9.83869 64.4178 9.83869ZM63.0979 26.9023C60.0812 26.9023 58.5728 24.6398 58.5728 20.2089C58.5728 16.7207 60.5525 14.2696 63.1922 14.2696C65.9262 14.2696 67.8117 16.815 67.8117 20.4917C67.8117 24.734 66.3033 26.9023 63.0979 26.9023Z" fill="#2A5650"/>
<path d="M118.532 10.3101H109.01C109.01 10.2158 109.01 10.2158 109.01 10.1215C109.01 10.0272 109.01 9.93295 109.01 9.83868C109.01 9.74441 109.01 9.65011 109.01 9.55584C109.01 9.46157 109.01 9.27302 109.01 9.17875C109.01 8.9902 109.01 8.89593 109.01 8.70738C109.01 8.51883 109.01 8.42455 109.01 8.236C109.01 8.04746 109.01 7.95318 109.01 7.76463C109.01 7.57608 109.01 7.38754 109.01 7.29326C109.01 7.10471 109.01 7.01044 109.01 6.82189C109.01 6.63334 109.01 6.53907 109.01 6.35052C109.01 6.25624 109.01 6.0677 109.01 5.97343C109.01 5.87915 109.01 5.69061 109.01 5.59634C109.01 5.50206 109.01 5.40777 109.01 5.31349C109.01 5.21922 109.01 5.12496 109.01 5.12496C109.01 5.03069 109.01 5.03068 109.01 4.9364C109.01 4.74785 109.01 4.65358 109.01 4.46503C109.01 4.27648 108.916 4.08793 108.821 3.89938C108.727 3.71083 108.633 3.52228 108.538 3.33373C108.444 3.14518 108.256 3.05091 108.161 2.86236C107.973 2.76808 107.879 2.57954 107.69 2.48527C107.501 2.39099 107.313 2.29673 107.124 2.29673C106.936 2.20246 106.747 2.20245 106.464 2.20245C105.05 2.20245 103.825 3.33373 103.73 4.74784V4.9364V23.2256C103.73 27.6565 106.182 31.5218 112.215 31.5218C118.06 31.5218 120.606 27.6565 120.606 23.2256V19.926C120.606 18.5119 119.474 17.3806 118.06 17.3806C116.646 17.3806 115.515 18.5119 115.515 19.926V22.7542C115.515 25.2997 114.478 26.8081 112.309 26.8081C110.047 26.8081 109.198 25.2996 109.198 22.66V14.1753H118.72C119.663 14.1753 120.511 13.4211 120.606 12.4783C120.606 12.3841 120.606 12.3841 120.606 12.2898C120.606 12.1955 120.606 12.1955 120.606 12.1013C120.323 11.0642 119.474 10.3101 118.532 10.3101Z" fill="#2A5650"/>
<path d="M131.824 9.83862C131.447 9.83862 130.976 9.83862 130.599 9.83862C130.221 9.83862 129.844 9.93287 129.467 9.93287C129.09 9.93287 128.807 10.0272 128.43 10.1214C128.147 10.2157 127.77 10.31 127.487 10.4042C127.205 10.4985 126.922 10.5928 126.639 10.6871C126.356 10.7814 126.168 10.8756 125.885 11.0642C125.696 11.1585 125.413 11.347 125.225 11.4413C125.036 11.6298 124.848 11.7241 124.659 11.9126C124.471 12.1012 124.282 12.2897 124.188 12.4783C123.999 12.6668 123.905 12.8554 123.811 13.0439C123.716 13.2325 123.528 13.421 123.434 13.7038C123.339 13.8924 123.245 14.1752 123.151 14.3638C123.057 14.5523 122.962 14.8352 122.962 15.0237C122.962 15.2123 122.868 15.4008 122.868 15.5893C122.868 15.5893 122.868 15.5893 122.868 15.6836C122.868 15.7779 122.868 15.8722 122.868 15.9665C122.868 16.0607 122.868 16.155 122.962 16.2493C123.057 16.4378 123.057 16.6264 123.151 16.8149C123.151 16.9092 123.245 16.9092 123.245 17.0034C123.716 17.7576 124.471 18.229 125.413 18.229C126.356 18.229 127.11 17.7576 127.582 17.0034C127.676 16.8149 127.77 16.6264 127.865 16.3435C127.865 16.2493 127.865 16.2493 127.959 16.155C128.43 14.8351 129.467 13.9867 131.541 13.9867C133.71 13.9867 135.029 14.8351 135.029 16.155C135.029 17.5691 134.275 18.1347 131.541 18.5118C126.073 19.266 122.02 19.926 122.02 25.8653C122.02 29.2591 124.188 31.5217 128.902 31.5217C131.636 31.5217 133.898 30.579 135.124 29.0706C135.124 29.2591 135.124 29.4477 135.218 29.6362C135.312 30.1076 135.595 30.579 135.972 30.9561C136.444 31.4274 137.198 31.8045 137.858 31.8045C138.612 31.8045 139.272 31.5217 139.743 30.9561C140.214 30.4847 140.497 29.8248 140.497 29.0706V17.8519C140.592 12.7611 138.329 9.83862 131.824 9.83862ZM135.124 23.1313C135.124 25.5824 132.955 27.6565 130.221 27.6565C128.524 27.6565 127.582 26.9023 127.582 25.2996C127.582 23.5084 128.619 22.6599 131.73 22.0943C133.804 21.7172 134.747 21.4343 135.312 20.8687L135.124 23.1313Z" fill="#2A5650"/>
<path d="M12.0957 9.93282C9.55034 9.93282 7.4763 10.9699 5.96791 13.1382V2.86224C5.87364 1.44813 4.64807 0.411133 3.23396 0.411133C1.81984 0.411133 0.688549 1.44813 0.5 2.86224V31.1445C0.594274 32.5587 1.72557 33.5957 3.13968 33.5957C4.5538 33.5957 5.68509 32.5587 5.77936 31.1445V30.956V28.5992C7.0992 30.6732 8.98469 31.6159 11.5301 31.6159C16.7152 31.6159 20.4862 27.4679 20.4862 20.4916C20.5804 14.3637 17.3751 9.93282 12.0957 9.93282ZM10.3988 27.2793C7.75912 27.2793 5.77936 24.8282 5.77936 21.34C5.77936 16.8148 7.28775 14.6465 10.3045 14.6465C13.5099 14.6465 15.0183 16.8149 15.0183 21.0572C15.0183 24.7339 13.0385 27.2793 10.3988 27.2793Z" fill="#2A5650"/>
<path d="M28.2169 12.7612C28.2169 12.8554 28.2169 12.8554 28.2169 12.9497C28.2169 13.044 28.2169 13.044 28.2169 13.1383C28.2169 13.2325 28.2169 13.2325 28.2169 13.3268C28.2169 13.2325 28.2169 13.4211 28.2169 13.3268C28.2169 13.4211 28.2169 13.5154 28.2169 13.6096C28.2169 13.7039 28.2169 13.7982 28.2169 13.8925C28.2169 13.9867 28.2169 14.1753 28.2169 14.2695C28.2169 14.3638 28.2169 14.5524 28.2169 14.6466C28.2169 14.7409 28.2169 14.9295 28.2169 15.0238C28.2169 15.2123 28.2169 15.3066 28.2169 15.4951C28.2169 15.6837 28.2169 15.778 28.2169 15.9665C28.2169 16.1551 28.2169 16.3436 28.2169 16.4379C28.2169 16.6264 28.2169 16.8149 28.2169 17.0035C28.2169 17.192 28.2169 17.3806 28.2169 17.5691C28.2169 17.7577 28.2169 17.9463 28.2169 18.1348C28.2169 18.3233 28.2169 18.5119 28.2169 18.7005C28.2169 18.889 28.2169 19.0776 28.2169 19.2661C28.2169 19.4547 28.2169 19.6432 28.2169 19.8317C28.2169 20.0203 28.2169 20.2088 28.2169 20.3974C28.2169 20.5859 28.2169 20.7745 28.2169 20.963C28.2169 21.1516 28.2169 21.3401 28.2169 21.5287C28.2169 21.7172 28.2169 21.9058 28.2169 22.1886C28.2169 22.3771 28.2169 22.5657 28.2169 22.8485C28.2169 23.0371 28.2169 23.2256 28.2169 23.4142C28.2169 23.6027 28.2169 23.7913 28.2169 23.9798C28.2169 24.1684 28.2169 24.3569 28.2169 24.5454C28.2169 24.734 28.2169 24.9225 28.2169 25.1111C28.2169 25.2996 28.2169 25.4882 28.2169 25.6767C28.2169 25.8653 28.2169 26.0539 28.2169 26.2424C28.2169 26.4309 28.2169 26.6195 28.2169 26.8081C28.2169 26.9966 28.2169 27.1851 28.2169 27.3737C28.2169 27.5622 28.2169 27.7508 28.2169 27.845C28.2169 28.0336 28.2169 28.1279 28.2169 28.3164C28.2169 28.505 28.2169 28.5992 28.2169 28.7878C28.2169 28.9763 28.2169 29.0706 28.2169 29.2592C28.2169 29.3534 28.2169 29.542 28.2169 29.6363C28.2169 29.7306 28.2169 29.9191 28.2169 30.0134C28.2169 30.1076 28.2169 30.2019 28.2169 30.3905C28.2169 30.4847 28.2169 30.579 28.2169 30.6733C28.2169 30.7676 28.2169 30.8618 28.2169 30.9561C28.2169 31.0504 28.2169 31.1446 28.2169 31.1446C28.2169 31.2389 28.2169 31.2389 28.2169 31.3332V31.4275V31.5218C27.4627 30.9561 26.52 30.6733 25.483 30.6733C24.446 30.6733 23.5032 30.9561 22.749 31.5218V12.6669V12.5726C22.749 11.0642 23.9746 9.93292 25.483 9.93292C25.7658 9.93292 26.0486 9.93293 26.2372 10.0272C26.52 10.1215 26.7085 10.2157 26.9914 10.4043C27.1799 10.5928 27.3685 10.6871 27.557 10.8757C27.7456 11.0642 27.8398 11.2528 27.9341 11.5356C28.0284 11.8184 28.1227 12.007 28.1227 12.2898C28.2169 12.4783 28.2169 12.5726 28.2169 12.7612C28.2169 12.6669 28.2169 12.6669 28.2169 12.7612Z" fill="#2A5650"/>
<path d="M40.7546 10.0271C34.2496 10.0271 30.1016 14.3637 30.1016 20.8686C30.1016 27.2793 34.0611 31.7102 40.7546 31.7102C47.1652 31.7102 51.219 27.3736 51.219 20.8686C51.219 14.2694 47.2595 10.0271 40.7546 10.0271ZM47.4481 23.3198C47.3538 23.7912 47.071 24.074 46.6939 24.3568C46.411 24.5454 46.1282 24.7339 45.9397 24.9225C45.6568 25.111 45.374 25.4881 45.1855 25.7709C45.0912 26.148 44.9026 26.5251 44.7141 26.8079C44.4313 27.2793 44.1484 27.6564 43.6771 28.0335C43.1114 28.4106 42.3572 28.4106 41.7916 28.0335C41.5088 27.845 41.3202 27.7507 41.1317 27.5621C40.8488 27.3736 40.4717 27.185 40.0946 27.185C39.6233 27.185 39.2462 27.185 38.8691 27.2793C38.5863 27.3736 38.3034 27.4678 38.0206 27.4678C37.455 27.5621 36.9836 27.4679 36.5122 27.185C36.1351 26.9965 35.9466 26.7137 35.8523 26.3366C35.8523 26.148 35.8523 25.8652 35.8523 25.5824C36.0409 24.9224 35.9466 24.3568 35.5695 23.7912C35.3809 23.5083 35.0981 23.1312 34.8153 22.8484C34.4382 22.377 34.1554 21.9057 33.9668 21.34C33.8725 20.7744 33.7783 20.303 33.9668 19.7374C34.0611 19.266 34.3439 18.9832 34.721 18.7946C34.9096 18.7004 35.1924 18.6061 35.3809 18.5118C35.6638 18.3232 35.9466 18.229 36.1351 17.9461C36.3237 17.6633 36.5122 17.3805 36.6065 17.0034C36.7008 16.6263 36.7008 16.3435 36.795 15.9664C36.9836 15.0237 37.5492 14.3637 38.3977 13.8924C38.7748 13.7038 39.2462 13.5153 39.6233 13.5153C39.6233 13.5153 39.6233 13.5153 39.7176 13.5153H40.1889C40.3775 13.5153 40.4718 13.6095 40.6603 13.6095C41.0374 13.7038 41.4145 13.8924 41.7916 14.0809C42.1687 14.2695 42.4515 14.5523 42.7343 14.7408C42.9229 14.8351 43.1114 15.0236 43.3 15.1179C43.5828 15.3065 43.8656 15.4007 44.1484 15.4007C44.4313 15.4007 44.8084 15.495 45.0912 15.5893C45.6568 15.8721 45.8454 16.3435 45.9397 16.9091C45.9397 17.192 45.9397 17.5691 45.8454 17.8519C45.7511 18.1347 45.7511 18.4175 45.7511 18.7946C45.7511 19.266 45.9397 19.6431 46.1282 20.0202C46.3167 20.303 46.5053 20.4915 46.5996 20.7744C46.9767 21.2457 47.2595 21.7171 47.3538 22.377C47.5423 22.6599 47.5423 22.9427 47.4481 23.3198Z" fill="#2A5650"/>
<path d="M100.996 23.6027C100.525 22.9427 99.8649 22.5657 98.9221 22.5657C98.0737 22.5657 97.3195 22.9427 96.7538 23.6027C96.5653 23.7912 96.3767 24.074 96.2825 24.3569V24.4511C95.7168 26.0538 94.3027 26.9965 92.4172 26.9965C90.2489 26.9965 88.3634 24.8282 88.3634 20.3031C88.3634 15.7779 90.2489 14.3638 92.6058 14.3638C93.5485 14.3638 94.4913 14.6466 95.2455 15.3065C95.6226 15.5893 95.9054 15.9665 96.0939 16.4378C96.5653 17.4748 97.6023 18.3233 98.7336 18.3233C99.2992 18.3233 99.8649 18.1348 100.336 17.7577C100.431 17.6634 100.525 17.5691 100.619 17.4748C100.713 17.3805 100.808 17.2863 100.902 17.192C101.279 16.7206 101.562 16.0607 101.373 15.4951C101.185 14.8352 100.996 14.2695 100.619 13.7038C100.525 13.5153 100.336 13.3268 100.242 13.1382C100.053 12.9497 99.9592 12.7611 99.7706 12.5726C99.5821 12.384 99.3935 12.1955 99.205 12.1012C99.0164 11.9127 98.8279 11.8184 98.6393 11.6298C98.4508 11.4413 98.2622 11.347 97.9794 11.2527C97.7909 11.1585 97.508 10.9699 97.3195 10.8756C97.1309 10.7813 96.8481 10.6871 96.6596 10.5928C96.3767 10.4985 96.1882 10.4043 95.9054 10.31C95.6225 10.2157 95.3397 10.1214 95.1512 10.1214C94.8683 10.0272 94.5855 10.0271 94.3027 9.93287C94.0199 9.93287 93.7371 9.83862 93.4542 9.83862C93.1714 9.83862 92.8886 9.83862 92.6058 9.83862C86.855 9.83862 82.8955 13.0439 82.8955 20.4916C82.8955 27.9393 86.7608 31.616 92.4172 31.616C94.397 31.616 96.3767 31.1446 97.9794 30.0133C98.7336 29.542 99.4878 28.882 100.053 28.1278C100.619 27.4679 101.279 26.5252 101.373 25.6767C101.562 24.8282 101.373 24.1683 100.996 23.6027Z" fill="#2A5650"/>
</svg>
