<svg width="25" height="25" viewBox="0 0 25 25" fill="none" xmlns="http://www.w3.org/2000/svg">
<g clip-path="url(#clip0_1206_2871)">
<path d="M12.5 2.5C15.217 2.5 15.556 2.51 16.622 2.56C17.687 2.61 18.412 2.777 19.05 3.025C19.71 3.279 20.266 3.623 20.822 4.178C21.3305 4.6779 21.724 5.28259 21.975 5.95C22.222 6.587 22.39 7.313 22.44 8.378C22.487 9.444 22.5 9.783 22.5 12.5C22.5 15.217 22.49 15.556 22.44 16.622C22.39 17.687 22.222 18.412 21.975 19.05C21.7247 19.7178 21.3311 20.3226 20.822 20.822C20.322 21.3303 19.7173 21.7238 19.05 21.975C18.413 22.222 17.687 22.39 16.622 22.44C15.556 22.487 15.217 22.5 12.5 22.5C9.783 22.5 9.444 22.49 8.378 22.44C7.313 22.39 6.588 22.222 5.95 21.975C5.28233 21.7245 4.67753 21.3309 4.178 20.822C3.66941 20.3222 3.27593 19.7175 3.025 19.05C2.777 18.413 2.61 17.687 2.56 16.622C2.513 15.556 2.5 15.217 2.5 12.5C2.5 9.783 2.51 9.444 2.56 8.378C2.61 7.312 2.777 6.588 3.025 5.95C3.27524 5.28218 3.6688 4.67732 4.178 4.178C4.67767 3.66923 5.28243 3.27573 5.95 3.025C6.588 2.777 7.312 2.61 8.378 2.56C9.444 2.513 9.783 2.5 12.5 2.5ZM12.5 7.5C11.1739 7.5 9.90215 8.02678 8.96447 8.96447C8.02678 9.90215 7.5 11.1739 7.5 12.5C7.5 13.8261 8.02678 15.0979 8.96447 16.0355C9.90215 16.9732 11.1739 17.5 12.5 17.5C13.8261 17.5 15.0979 16.9732 16.0355 16.0355C16.9732 15.0979 17.5 13.8261 17.5 12.5C17.5 11.1739 16.9732 9.90215 16.0355 8.96447C15.0979 8.02678 13.8261 7.5 12.5 7.5ZM19 7.25C19 6.91848 18.8683 6.60054 18.6339 6.36612C18.3995 6.1317 18.0815 6 17.75 6C17.4185 6 17.1005 6.1317 16.8661 6.36612C16.6317 6.60054 16.5 6.91848 16.5 7.25C16.5 7.58152 16.6317 7.89946 16.8661 8.13388C17.1005 8.3683 17.4185 8.5 17.75 8.5C18.0815 8.5 18.3995 8.3683 18.6339 8.13388C18.8683 7.89946 19 7.58152 19 7.25ZM12.5 9.5C13.2956 9.5 14.0587 9.81607 14.6213 10.3787C15.1839 10.9413 15.5 11.7044 15.5 12.5C15.5 13.2956 15.1839 14.0587 14.6213 14.6213C14.0587 15.1839 13.2956 15.5 12.5 15.5C11.7044 15.5 10.9413 15.1839 10.3787 14.6213C9.81607 14.0587 9.5 13.2956 9.5 12.5C9.5 11.7044 9.81607 10.9413 10.3787 10.3787C10.9413 9.81607 11.7044 9.5 12.5 9.5Z" fill="white"/>
</g>
<defs>
<clipPath id="clip0_1206_2871">
<rect width="24" height="24" fill="white" transform="translate(0.5 0.5)"/>
</clipPath>
</defs>
</svg>
