<svg width="201" height="201" viewBox="0 0 201 201" fill="none" xmlns="http://www.w3.org/2000/svg">
<g clip-path="url(#clip0_1003_16831)">
<rect x="0.5" y="0.5" width="200" height="200" rx="16" fill="#F3F5F7"/>
<path d="M32.5 44.5C32.5 37.8726 37.8726 32.5 44.5 32.5H200.5V200.5H32.5V44.5Z" fill="white"/>
<g clip-path="url(#clip1_1003_16831)">
<path d="M58.375 57.4H211.137V210.718H58.375V57.4Z" fill="white"/>
<path d="M60.4375 216.1H206.875C211.688 216.1 215.813 211.96 215.813 207.13V60.16C216.5 54.64 212.375 50.5 207.563 50.5H60.4375C55.625 50.5 51.5 54.64 51.5 59.47V206.44C51.5 211.96 55.625 216.1 60.4375 216.1ZM58.375 64.3C58.375 60.16 61.8125 57.4 65.25 57.4H202.75C206.875 57.4 209.625 60.85 209.625 64.3V202.3C209.625 206.44 206.188 209.2 202.75 209.2H65.25C61.125 209.2 58.375 205.75 58.375 202.3V64.3Z" fill="#2A5650"/>
<path d="M126.238 72.5182H120.8V69.7891C120.8 68.2427 121.978 67.0601 123.519 67.0601H126.238V72.5182Z" fill="black"/>
<path d="M126.08 67.0601H131.518V72.5182H126.08V67.0601Z" fill="black"/>
<path d="M131.36 67.0601H136.799V72.5182H131.36V67.0601Z" fill="black"/>
<path d="M142.078 72.5182H136.64V67.0601H139.359C140.9 67.0601 142.078 68.2427 142.078 69.7891V72.5182ZM157.918 72.5182H152.48C152.48 69.5162 154.927 67.0601 157.918 67.0601L157.555 68.2427C157.193 69.2433 157.193 70.4259 157.555 71.4266L157.918 72.5182Z" fill="black"/>
<path d="M120.8 72.3593L121.162 73.5419C121.525 74.5425 121.525 75.7251 121.162 76.7258L120.8 77.8174C123.791 77.8174 126.238 75.3612 126.238 72.3593H120.8ZM131.36 72.3593H136.798V77.8174H131.36V72.3593Z" fill="black"/>
<path d="M136.64 72.3593H142.078V77.8174H136.64V72.3593Z" fill="black"/>
<path d="M141.92 72.3593H147.358V77.8174H141.92V72.3593Z" fill="black"/>
<path d="M147.2 72.3593H152.639V77.8174H147.2V72.3593Z" fill="black"/>
<path d="M155.199 77.8174H152.48V72.3593H157.919V75.0883C157.919 76.6348 156.74 77.8174 155.199 77.8174ZM115.679 83.1166H110.24V80.3875C110.24 78.8411 111.419 77.6585 112.959 77.6585H115.679V83.1166Z" fill="black"/>
<path d="M115.52 77.6584V83.1166L116.698 82.7527C117.695 82.3889 118.873 82.3889 119.87 82.7527L120.958 83.1166C120.958 80.1146 118.511 77.6584 115.52 77.6584Z" fill="black"/>
<path d="M131.36 77.6584L131.723 78.8411C132.085 79.8417 132.085 81.0243 131.723 82.025L131.36 83.1166C134.351 83.1166 136.799 80.6604 136.799 77.6584H131.36ZM141.92 77.6584H147.359V83.1166H141.92V77.6584ZM110.24 82.9576H115.679V88.4158H110.24V82.9576Z" fill="black"/>
<path d="M131.518 88.4158H126.08C126.08 85.4138 128.527 82.9576 131.518 82.9576L131.156 84.1402C130.793 85.1409 130.793 86.3235 131.156 87.3242L131.518 88.4158Z" fill="black"/>
<path d="M142.078 88.4158H136.64V85.6867C136.64 84.1402 137.818 82.9576 139.359 82.9576H142.078V88.4158Z" fill="black"/>
<path d="M141.92 82.9576H147.358V88.4158H141.92V82.9576Z" fill="black"/>
<path d="M147.2 82.9576V88.4158L148.379 88.0519C149.376 87.6881 150.554 87.6881 151.551 88.0519L152.639 88.4158C152.639 85.4138 150.191 82.9576 147.2 82.9576Z" fill="black"/>
<path d="M110.24 88.2568H115.679V93.715H110.24V88.2568ZM131.519 93.715H128.799C127.259 93.715 126.08 92.5324 126.08 90.9859V88.2568H131.519V93.715Z" fill="black"/>
<path d="M131.36 88.2568H136.799V93.715H131.36V88.2568Z" fill="black"/>
<path d="M139.359 93.715H136.64V88.2568H142.078V90.9859C142.078 92.5324 140.9 93.715 139.359 93.715Z" fill="black"/>
<path d="M155.2 93.715C156.701 93.715 157.919 92.4932 157.919 90.9859C157.919 89.4787 156.701 88.2568 155.2 88.2568C153.698 88.2568 152.48 89.4787 152.48 90.9859C152.48 92.4932 153.698 93.715 155.2 93.715Z" fill="black"/>
<path d="M110.24 93.556H115.679V99.0142H110.24V93.556Z" fill="black"/>
<path d="M115.52 93.556V99.0142L116.698 98.6503C117.695 98.2865 118.873 98.2865 119.87 98.6503L120.958 99.0142C120.958 96.0122 118.511 93.556 115.52 93.556Z" fill="black"/>
<path d="M131.36 93.556H136.799V99.0142H131.36V93.556ZM147.359 99.0142H141.92V96.2851C141.92 94.7386 143.099 93.556 144.64 93.556H147.359V99.0142Z" fill="black"/>
<path d="M147.2 93.556V99.0142L148.379 98.6503C149.376 98.2865 150.554 98.2865 151.551 98.6503L152.639 99.0142C152.639 96.0122 150.191 93.556 147.2 93.556Z" fill="black"/>
<path d="M110.24 98.8552H115.679V104.313H110.24V98.8552Z" fill="black"/>
<path d="M123.519 104.313C125.021 104.313 126.238 103.092 126.238 101.584C126.238 100.077 125.021 98.8552 123.519 98.8552C122.017 98.8552 120.8 100.077 120.8 101.584C120.8 103.092 122.017 104.313 123.519 104.313Z" fill="black"/>
<path d="M131.36 98.8552L131.723 100.038C132.085 101.038 132.085 102.221 131.723 103.222L131.36 104.313C134.351 104.313 136.799 101.857 136.799 98.8552H131.36ZM141.92 98.8552H147.359V104.313H141.92V98.8552ZM157.919 104.313H152.48C152.48 101.311 154.928 98.8552 157.919 98.8552L157.556 100.038C157.194 101.038 157.194 102.221 157.556 103.222L157.919 104.313ZM110.24 104.154L110.603 105.337C110.965 106.338 110.965 107.52 110.603 108.521L110.24 109.613C113.231 109.613 115.679 107.156 115.679 104.154H110.24Z" fill="black"/>
<path d="M131.518 109.613H126.08C126.08 106.611 128.527 104.154 131.518 104.154L131.156 105.337C130.793 106.338 130.793 107.52 131.156 108.521L131.518 109.613Z" fill="black"/>
<path d="M141.92 104.154L142.283 105.337C142.645 106.338 142.645 107.52 142.283 108.521L141.92 109.613C144.911 109.613 147.358 107.156 147.358 104.154H141.92ZM152.48 104.154L152.843 105.337C153.205 106.338 153.205 107.52 152.843 108.521L152.48 109.613C155.471 109.613 157.918 107.156 157.918 104.154H152.48ZM73.4384 114.912H68C68 111.91 70.4473 109.454 73.4384 109.454L73.0758 110.636C72.7133 111.637 72.7133 112.819 73.0758 113.82L73.4384 114.912ZM83.9984 114.912H78.56V112.183C78.56 110.636 79.7383 109.454 81.2792 109.454H83.9984V114.912Z" fill="black"/>
<path d="M83.8398 109.454H89.2782V114.912H83.8398V109.454Z" fill="black"/>
<path d="M89.1201 109.454H94.5585V114.912H89.1201V109.454Z" fill="black"/>
<path d="M94.4004 109.454H99.8388V114.912H94.4004V109.454Z" fill="black"/>
<path d="M99.6797 109.454V114.912L100.858 114.548C101.855 114.184 103.033 114.184 104.03 114.548L105.118 114.912C105.118 111.91 102.671 109.454 99.6797 109.454Z" fill="black"/>
<path d="M126.08 109.454H131.518V114.912H126.08V109.454ZM142.078 114.912H136.64C136.64 111.91 139.087 109.454 142.078 109.454L141.716 110.636C141.353 111.637 141.353 112.819 141.716 113.82L142.078 114.912ZM167.3 109.817C166.303 110.181 165.125 110.181 164.128 109.817L163.04 109.454C163.04 112.456 165.487 114.912 168.478 114.912V109.454L167.3 109.817Z" fill="black"/>
<path d="M168.32 109.454H173.759V114.912H168.32V109.454Z" fill="black"/>
<path d="M173.6 109.454H179.038V114.912H173.6V109.454Z" fill="black"/>
<path d="M178.88 109.454H184.318V114.912H178.88V109.454Z" fill="black"/>
<path d="M184.16 109.454V114.912L185.338 114.548C186.336 114.184 187.514 114.184 188.511 114.548L189.599 114.912C189.599 111.91 187.151 109.454 184.16 109.454Z" fill="black"/>
<path d="M73.4384 120.211H70.7192C69.1783 120.211 68 119.028 68 117.482V114.753H73.4384V120.211Z" fill="black"/>
<path d="M73.2803 114.753H78.7187V120.211H73.2803V114.753Z" fill="black"/>
<path d="M78.5596 114.753H83.998V120.211H78.5596V114.753Z" fill="black"/>
<path d="M83.8398 114.753H89.2782V120.211H83.8398V114.753ZM120.958 120.211H115.52C115.52 117.209 117.967 114.753 120.958 114.753L120.596 115.935C120.233 116.936 120.233 118.119 120.596 119.119L120.958 120.211ZM126.08 114.753H131.518V120.211H126.08V114.753Z" fill="black"/>
<path d="M131.36 114.753H136.799V120.211H131.36V114.753Z" fill="black"/>
<path d="M136.64 114.753H142.078V120.211H136.64V114.753Z" fill="black"/>
<path d="M160.479 120.211C161.981 120.211 163.198 118.989 163.198 117.482C163.198 115.975 161.981 114.753 160.479 114.753C158.977 114.753 157.76 115.975 157.76 117.482C157.76 118.989 158.977 120.211 160.479 120.211Z" fill="black"/>
<path d="M168.32 114.753L168.683 115.935C169.045 116.936 169.045 118.119 168.683 119.119L168.32 120.211C171.311 120.211 173.759 117.755 173.759 114.753H168.32ZM194.879 120.211H189.44C189.44 117.209 191.888 114.753 194.879 114.753L194.516 115.935C194.154 116.936 194.154 118.119 194.516 119.119L194.879 120.211Z" fill="black"/>
<path d="M78.7187 125.51H75.9995C74.4586 125.51 73.2803 124.328 73.2803 122.781V120.052H78.7187V125.51Z" fill="black"/>
<path d="M78.5596 120.052H83.998V125.51H78.5596V120.052Z" fill="black"/>
<path d="M83.8398 120.052H89.2782V125.51H83.8398V120.052Z" fill="black"/>
<path d="M89.1201 120.052V125.51L90.2984 125.146C91.2955 124.782 92.4738 124.782 93.4708 125.146L94.5585 125.51C94.5585 122.508 92.1112 120.052 89.1201 120.052Z" fill="black"/>
<path d="M102.399 125.51C103.901 125.51 105.118 124.288 105.118 122.781C105.118 121.274 103.901 120.052 102.399 120.052C100.897 120.052 99.6797 121.274 99.6797 122.781C99.6797 124.288 100.897 125.51 102.399 125.51Z" fill="black"/>
<path d="M120.958 125.51H118.239C116.698 125.51 115.52 124.328 115.52 122.781V120.052H120.958V125.51Z" fill="black"/>
<path d="M120.8 120.052H126.238V125.51H120.8V120.052Z" fill="black"/>
<path d="M126.08 120.052H131.518V125.51H126.08V120.052Z" fill="black"/>
<path d="M142.078 125.51H139.359C137.818 125.51 136.64 124.328 136.64 122.781V120.052H142.078V125.51Z" fill="black"/>
<path d="M141.92 120.052H147.358V125.51H141.92V120.052Z" fill="black"/>
<path d="M147.2 120.052H152.639V125.51H147.2V120.052Z" fill="black"/>
<path d="M157.919 125.51H152.48V120.052H155.2C156.741 120.052 157.919 121.235 157.919 122.781V125.51ZM168.479 125.51H163.04C163.04 122.508 165.488 120.052 168.479 120.052L168.116 121.235C167.754 122.235 167.754 123.418 168.116 124.419L168.479 125.51Z" fill="black"/>
<path d="M181.599 125.51C183.101 125.51 184.318 124.288 184.318 122.781C184.318 121.274 183.101 120.052 181.599 120.052C180.097 120.052 178.88 121.274 178.88 122.781C178.88 124.288 180.097 125.51 181.599 125.51Z" fill="black"/>
<path d="M194.879 125.51H192.16C190.619 125.51 189.44 124.328 189.44 122.781V120.052H194.879V125.51Z" fill="black"/>
<path d="M200.158 125.51H194.72V120.052H197.439C198.98 120.052 200.158 121.235 200.158 122.781V125.51ZM83.8398 125.351H89.2782V130.809H83.8398V125.351Z" fill="black"/>
<path d="M107.679 130.809C109.181 130.809 110.398 129.588 110.398 128.08C110.398 126.573 109.181 125.351 107.679 125.351C106.177 125.351 104.96 126.573 104.96 128.08C104.96 129.588 106.177 130.809 107.679 130.809Z" fill="black"/>
<path d="M131.518 130.809H128.799C127.258 130.809 126.08 129.627 126.08 128.08V125.351H131.518V130.809Z" fill="black"/>
<path d="M131.36 125.351V130.809L132.539 130.445C133.536 130.082 134.714 130.082 135.711 130.445L136.799 130.809C136.799 127.807 134.351 125.351 131.36 125.351Z" fill="black"/>
<path d="M147.358 130.809H144.639C143.098 130.809 141.92 129.627 141.92 128.08V125.351H147.358V130.809Z" fill="black"/>
<path d="M147.2 125.351H152.639V130.809H147.2V125.351Z" fill="black"/>
<path d="M152.48 125.351H157.919V130.809H152.48V125.351Z" fill="black"/>
<path d="M157.76 125.351H163.198V130.809H157.76V125.351Z" fill="black"/>
<path d="M163.04 125.351H168.478V130.809H163.04V125.351Z" fill="black"/>
<path d="M173.758 130.809H168.32V125.351H171.039C172.58 125.351 173.758 126.534 173.758 128.08V130.809ZM194.72 125.351H200.158V130.809H194.72V125.351ZM73.4384 136.109H68C68 133.107 70.4473 130.65 73.4384 130.65L73.0758 131.833C72.7133 132.834 72.7133 134.016 73.0758 135.017L73.4384 136.109ZM83.9984 136.109H78.56V133.379C78.56 131.833 79.7383 130.65 81.2792 130.65H83.9984V136.109Z" fill="black"/>
<path d="M83.8398 130.65H89.2782V136.109H83.8398V130.65Z" fill="black"/>
<path d="M89.1201 130.65V136.109L90.2984 135.745C91.2955 135.381 92.4738 135.381 93.4708 135.745L94.5585 136.109C94.5585 133.107 92.1112 130.65 89.1201 130.65Z" fill="black"/>
<path d="M102.399 136.109C103.901 136.109 105.118 134.887 105.118 133.379C105.118 131.872 103.901 130.65 102.399 130.65C100.897 130.65 99.6797 131.872 99.6797 133.379C99.6797 134.887 100.897 136.109 102.399 136.109Z" fill="black"/>
<path d="M114.5 131.014C113.503 131.378 112.325 131.378 111.328 131.014L110.24 130.65C110.24 133.652 112.688 136.109 115.679 136.109V130.65L114.5 131.014Z" fill="black"/>
<path d="M115.52 130.65V136.109L116.698 135.745C117.695 135.381 118.873 135.381 119.87 135.745L120.958 136.109C120.958 133.107 118.511 130.65 115.52 130.65Z" fill="black"/>
<path d="M147.2 130.65L147.563 131.833C147.925 132.834 147.925 134.016 147.563 135.017L147.2 136.109C150.191 136.109 152.639 133.652 152.639 130.65H147.2ZM157.76 130.65H163.199V136.109H157.76V130.65Z" fill="black"/>
<path d="M163.04 130.65H168.478V136.109H163.04V130.65Z" fill="black"/>
<path d="M168.32 130.65H173.759V136.109H168.32V130.65Z" fill="black"/>
<path d="M173.6 130.65V136.109L174.778 135.745C175.775 135.381 176.953 135.381 177.95 135.745L179.038 136.109C179.038 133.107 176.591 130.65 173.6 130.65Z" fill="black"/>
<path d="M188.42 131.014C187.423 131.378 186.245 131.378 185.248 131.014L184.16 130.65C184.16 133.652 186.607 136.109 189.599 136.109V130.65L188.42 131.014Z" fill="black"/>
<path d="M189.44 130.65H194.879V136.109H189.44V130.65Z" fill="black"/>
<path d="M197.439 136.109H194.72V130.65H200.158V133.379C200.158 134.926 198.98 136.109 197.439 136.109ZM68 135.95H73.4384V141.408H68V135.95ZM78.56 135.95L78.9226 137.132C79.2851 138.133 79.2851 139.315 78.9226 140.316L78.56 141.408C81.5511 141.408 83.9984 138.952 83.9984 135.95H78.56Z" fill="black"/>
<path d="M97.1196 141.408C98.6214 141.408 99.8388 140.186 99.8388 138.679C99.8388 137.171 98.6214 135.95 97.1196 135.95C95.6178 135.95 94.4004 137.171 94.4004 138.679C94.4004 140.186 95.6178 141.408 97.1196 141.408Z" fill="black"/>
<path d="M126.238 141.408H120.8C120.8 138.406 123.247 135.95 126.238 135.95L125.876 137.132C125.513 138.133 125.513 139.315 125.876 140.316L126.238 141.408ZM135.62 136.313C134.623 136.677 133.445 136.677 132.447 136.313L131.36 135.95C131.36 138.952 133.807 141.408 136.798 141.408V135.95L135.62 136.313Z" fill="black"/>
<path d="M142.078 141.408H136.64V135.95H139.359C140.9 135.95 142.078 137.132 142.078 138.679V141.408ZM156.74 136.313C155.743 136.677 154.564 136.677 153.567 136.313L152.48 135.95C152.48 138.952 154.927 141.408 157.918 141.408V135.95L156.74 136.313Z" fill="black"/>
<path d="M160.479 141.408H157.76V135.95H163.198V138.679C163.198 140.225 162.02 141.408 160.479 141.408ZM184.318 141.408H178.88C178.88 138.406 181.327 135.95 184.318 135.95L183.956 137.132C183.593 138.133 183.593 139.315 183.956 140.316L184.318 141.408ZM189.44 135.95H194.878V141.408H189.44V135.95ZM68 141.249H73.4384V146.707H68V141.249Z" fill="black"/>
<path d="M102.399 146.707C103.901 146.707 105.118 145.485 105.118 143.978C105.118 142.471 103.901 141.249 102.399 141.249C100.897 141.249 99.6797 142.471 99.6797 143.978C99.6797 145.485 100.897 146.707 102.399 146.707Z" fill="black"/>
<path d="M115.679 146.707H110.24C110.24 143.705 112.688 141.249 115.679 141.249L115.316 142.431C114.954 143.432 114.954 144.615 115.316 145.615L115.679 146.707ZM120.8 141.249L121.163 142.431C121.525 143.432 121.525 144.615 121.163 145.615L120.8 146.707C123.791 146.707 126.239 144.251 126.239 141.249H120.8ZM136.64 141.249H142.079V146.707H136.64V141.249Z" fill="black"/>
<path d="M141.92 141.249H147.358V146.707H141.92V141.249Z" fill="black"/>
<path d="M152.639 146.707H147.2V141.249H149.919C151.46 141.249 152.639 142.431 152.639 143.978V146.707ZM167.3 141.613C166.303 141.977 165.125 141.977 164.128 141.613L163.04 141.249C163.04 144.251 165.487 146.707 168.479 146.707V141.249L167.3 141.613Z" fill="black"/>
<path d="M168.32 141.249H173.759V146.707H168.32V141.249Z" fill="black"/>
<path d="M173.6 141.249H179.038V146.707H173.6V141.249Z" fill="black"/>
<path d="M181.599 146.707H178.88V141.249H184.318V143.978C184.318 145.524 183.14 146.707 181.599 146.707ZM194.878 146.707H192.159C190.618 146.707 189.44 145.524 189.44 143.978V141.249H194.878V146.707Z" fill="black"/>
<path d="M200.158 146.707H194.72V141.249H197.439C198.98 141.249 200.158 142.431 200.158 143.978V146.707ZM68 146.548H73.4384V152.006H68V146.548Z" fill="black"/>
<path d="M97.1196 152.006C98.6214 152.006 99.8388 150.784 99.8388 149.277C99.8388 147.77 98.6214 146.548 97.1196 146.548C95.6178 146.548 94.4004 147.77 94.4004 149.277C94.4004 150.784 95.6178 152.006 97.1196 152.006Z" fill="black"/>
<path d="M109.22 146.912C108.223 147.276 107.045 147.276 106.048 146.912L104.96 146.548C104.96 149.55 107.407 152.006 110.398 152.006V146.548L109.22 146.912Z" fill="black"/>
<path d="M110.24 146.548H115.679V152.006H110.24V146.548ZM136.799 152.006H131.36V149.277C131.36 147.731 132.539 146.548 134.079 146.548H136.799V152.006Z" fill="black"/>
<path d="M139.359 152.006H136.64V146.548H142.078V149.277C142.078 150.824 140.9 152.006 139.359 152.006ZM147.2 146.548H152.638V152.006H147.2V146.548Z" fill="black"/>
<path d="M157.919 152.006H152.48V146.548H155.2C156.741 146.548 157.919 147.731 157.919 149.277V152.006ZM168.32 146.548H173.759V152.006H168.32V146.548Z" fill="black"/>
<path d="M173.6 146.548H179.038V152.006H173.6V146.548ZM194.72 146.548L195.083 147.731C195.445 148.731 195.445 149.914 195.083 150.915L194.72 152.006C197.711 152.006 200.158 149.55 200.158 146.548H194.72ZM68 151.847L68.3626 153.03C68.7251 154.03 68.7251 155.213 68.3626 156.214L68 157.305C70.9911 157.305 73.4384 154.849 73.4384 151.847H68ZM88.1001 152.211C87.103 152.575 85.9247 152.575 84.9277 152.211L83.84 151.847C83.84 154.849 86.2873 157.305 89.2784 157.305V151.847L88.1001 152.211Z" fill="black"/>
<path d="M89.1201 151.847V157.305L90.2984 156.941C91.2955 156.578 92.4738 156.578 93.4708 156.941L94.5585 157.305C94.5585 154.303 92.1112 151.847 89.1201 151.847Z" fill="black"/>
<path d="M102.399 157.305C103.901 157.305 105.118 156.083 105.118 154.576C105.118 153.069 103.901 151.847 102.399 151.847C100.897 151.847 99.6797 153.069 99.6797 154.576C99.6797 156.083 100.897 157.305 102.399 157.305Z" fill="black"/>
<path d="M110.24 151.847H115.679V157.305H110.24V151.847Z" fill="black"/>
<path d="M115.52 151.847H120.958V157.305H115.52V151.847Z" fill="black"/>
<path d="M120.8 151.847V157.305L121.978 156.941C122.975 156.578 124.153 156.578 125.151 156.941L126.238 157.305C126.238 154.303 123.791 151.847 120.8 151.847Z" fill="black"/>
<path d="M131.36 151.847L131.723 153.03C132.085 154.03 132.085 155.213 131.723 156.214L131.36 157.305C134.351 157.305 136.799 154.849 136.799 151.847H131.36ZM146.18 152.211C145.183 152.575 144.005 152.575 143.008 152.211L141.92 151.847C141.92 154.849 144.368 157.305 147.359 157.305V151.847L146.18 152.211Z" fill="black"/>
<path d="M147.2 151.847H152.639V157.305H147.2V151.847Z" fill="black"/>
<path d="M152.48 151.847H157.919V157.305H152.48V151.847Z" fill="black"/>
<path d="M157.76 151.847H163.198V157.305H157.76V151.847Z" fill="black"/>
<path d="M163.04 151.847H168.478V157.305H163.04V151.847Z" fill="black"/>
<path d="M168.32 151.847H173.759V157.305H168.32V151.847Z" fill="black"/>
<path d="M173.6 151.847H179.038V157.305H173.6V151.847Z" fill="black"/>
<path d="M186.879 157.305C188.381 157.305 189.599 156.083 189.599 154.576C189.599 153.069 188.381 151.847 186.879 151.847C185.378 151.847 184.16 153.069 184.16 154.576C184.16 156.083 185.378 157.305 186.879 157.305Z" fill="black"/>
<path d="M115.679 162.605H112.959C111.419 162.605 110.24 161.422 110.24 159.875V157.146H115.679V162.605Z" fill="black"/>
<path d="M115.52 157.146H120.958V162.605H115.52V157.146ZM152.638 162.605H149.919C148.378 162.605 147.2 161.422 147.2 159.875V157.146H152.638V162.605Z" fill="black"/>
<path d="M152.48 157.146H157.919V162.605H152.48V157.146ZM173.6 157.146H179.039V162.605H173.6V157.146Z" fill="black"/>
<path d="M178.88 157.146V162.605L180.058 162.241C181.055 161.877 182.234 161.877 183.231 162.241L184.318 162.605C184.318 159.603 181.871 157.146 178.88 157.146Z" fill="black"/>
<path d="M115.52 162.446H120.958V167.904H115.52V162.446ZM131.518 167.904H126.08V165.175C126.08 163.628 127.258 162.446 128.799 162.446H131.518V167.904Z" fill="black"/>
<path d="M131.36 162.446V167.904L132.539 167.54C133.536 167.176 134.714 167.176 135.711 167.54L136.799 167.904C136.799 164.902 134.351 162.446 131.36 162.446Z" fill="black"/>
<path d="M152.48 162.446H157.919V167.904H152.48V162.446Z" fill="black"/>
<path d="M165.759 167.904C167.261 167.904 168.478 166.682 168.478 165.175C168.478 163.667 167.261 162.446 165.759 162.446C164.257 162.446 163.04 163.667 163.04 165.175C163.04 166.682 164.257 167.904 165.759 167.904Z" fill="black"/>
<path d="M173.6 162.446H179.038V167.904H173.6V162.446ZM188.42 162.809C187.423 163.173 186.244 163.173 185.247 162.809L184.16 162.446C184.16 165.448 186.607 167.904 189.598 167.904V162.446L188.42 162.809Z" fill="black"/>
<path d="M189.44 162.446H194.879V167.904H189.44V162.446Z" fill="black"/>
<path d="M200.159 167.904H194.72V162.446H197.439C198.98 162.446 200.159 163.628 200.159 165.175V167.904ZM115.679 173.203H110.24V170.474C110.24 168.927 111.419 167.745 112.959 167.745H115.679V173.203Z" fill="black"/>
<path d="M115.52 167.745H120.958V173.203H115.52V167.745Z" fill="black"/>
<path d="M120.8 167.745H126.238V173.203H120.8V167.745Z" fill="black"/>
<path d="M126.08 167.745H131.518V173.203H126.08V167.745Z" fill="black"/>
<path d="M144.639 173.203C146.141 173.203 147.358 171.981 147.358 170.474C147.358 168.967 146.141 167.745 144.639 167.745C143.137 167.745 141.92 168.967 141.92 170.474C141.92 171.981 143.137 173.203 144.639 173.203Z" fill="black"/>
<path d="M152.48 167.745H157.919V173.203H152.48V167.745ZM173.6 167.745H179.039V173.203H173.6V167.745Z" fill="black"/>
<path d="M178.88 167.745V173.203L180.058 172.839C181.055 172.475 182.234 172.475 183.231 172.839L184.318 173.203C184.318 170.201 181.871 167.745 178.88 167.745Z" fill="black"/>
<path d="M194.72 167.745H200.159V173.203H194.72V167.745ZM110.24 173.044H115.679V178.502H110.24V173.044Z" fill="black"/>
<path d="M115.52 173.044H120.958V178.502H115.52V173.044Z" fill="black"/>
<path d="M120.8 173.044H126.238V178.502H120.8V173.044Z" fill="black"/>
<path d="M128.799 178.502H126.08V173.044H131.518V175.773C131.518 177.32 130.34 178.502 128.799 178.502ZM151.46 173.408C150.463 173.772 149.285 173.772 148.288 173.408L147.2 173.044C147.2 176.046 149.647 178.502 152.638 178.502V173.044L151.46 173.408Z" fill="black"/>
<path d="M152.48 173.044H157.919V178.502H152.48V173.044Z" fill="black"/>
<path d="M157.76 173.044H163.198V178.502H157.76V173.044Z" fill="black"/>
<path d="M163.04 173.044H168.478V178.502H163.04V173.044Z" fill="black"/>
<path d="M168.32 173.044H173.759V178.502H168.32V173.044Z" fill="black"/>
<path d="M173.6 173.044H179.038V178.502H173.6V173.044ZM189.598 178.502H184.16V175.773C184.16 174.227 185.338 173.044 186.879 173.044H189.598V178.502Z" fill="black"/>
<path d="M189.44 173.044H194.879V178.502H189.44V173.044Z" fill="black"/>
<path d="M194.72 173.044H200.159V178.502H194.72V173.044ZM110.24 178.343H115.679V183.801H110.24V178.343Z" fill="black"/>
<path d="M115.52 178.343H120.958V183.801H115.52V178.343ZM135.62 178.707C134.623 179.071 133.444 179.071 132.447 178.707L131.36 178.343C131.36 181.345 133.807 183.801 136.798 183.801V178.343L135.62 178.707Z" fill="black"/>
<path d="M136.64 178.343H142.078V183.801H136.64V178.343Z" fill="black"/>
<path d="M147.358 183.801H141.92V178.343H144.639C146.18 178.343 147.358 179.526 147.358 181.072V183.801ZM152.48 178.343H157.918V183.801H152.48V178.343Z" fill="black"/>
<path d="M157.76 178.343H163.198V183.801H157.76V178.343Z" fill="black"/>
<path d="M165.759 183.801H163.04V178.343H168.478V181.072C168.478 182.619 167.3 183.801 165.759 183.801ZM179.038 183.801H176.319C174.778 183.801 173.6 182.619 173.6 181.072V178.343H179.038V183.801Z" fill="black"/>
<path d="M178.88 178.343H184.318V183.801H178.88V178.343Z" fill="black"/>
<path d="M184.16 178.343H189.599V183.801H184.16V178.343Z" fill="black"/>
<path d="M189.44 178.343H194.879V183.801H189.44V178.343Z" fill="black"/>
<path d="M194.72 178.343H200.159V183.801H194.72V178.343ZM115.679 189.101H112.959C111.419 189.101 110.24 187.918 110.24 186.372V183.642H115.679V189.101Z" fill="black"/>
<path d="M118.239 189.101H115.52V183.642H120.958V186.372C120.958 187.918 119.78 189.101 118.239 189.101ZM136.64 183.642H142.078V189.101H136.64V183.642Z" fill="black"/>
<path d="M144.639 189.101H141.92V183.642H147.358V186.372C147.358 187.918 146.18 189.101 144.639 189.101ZM152.48 183.642H157.918V189.101H152.48V183.642ZM178.88 183.642H184.318V189.101H178.88V183.642Z" fill="black"/>
<path d="M186.879 189.101H184.16V183.642H189.599V186.372C189.599 187.918 188.42 189.101 186.879 189.101ZM194.72 183.642H200.159V189.101H194.72V183.642Z" fill="black"/>
<path d="M123.519 194.4C125.021 194.4 126.238 193.178 126.238 191.671C126.238 190.164 125.021 188.942 123.519 188.942C122.017 188.942 120.8 190.164 120.8 191.671C120.8 193.178 122.017 194.4 123.519 194.4Z" fill="black"/>
<path d="M136.799 194.4H131.36V191.671C131.36 190.124 132.539 188.942 134.08 188.942H136.799V194.4Z" fill="black"/>
<path d="M139.359 194.4H136.64V188.942H142.078V191.671C142.078 193.217 140.9 194.4 139.359 194.4ZM151.46 189.306C150.463 189.669 149.284 189.669 148.287 189.306L147.2 188.942C147.2 191.944 149.647 194.4 152.638 194.4V188.942L151.46 189.306Z" fill="black"/>
<path d="M155.2 194.4H152.48V188.942H157.919V191.671C157.919 193.217 156.741 194.4 155.2 194.4ZM167.301 189.306C166.304 189.669 165.125 189.669 164.128 189.306L163.04 188.942C163.04 191.944 165.488 194.4 168.479 194.4V188.942L167.301 189.306Z" fill="black"/>
<path d="M168.32 188.942H173.759V194.4H168.32V188.942Z" fill="black"/>
<path d="M173.6 188.942H179.038V194.4H173.6V188.942Z" fill="black"/>
<path d="M178.88 188.942H184.318V194.4H178.88V188.942ZM194.72 188.942H200.158V194.4H194.72V188.942Z" fill="black"/>
<path d="M112.959 199.699C114.461 199.699 115.679 198.477 115.679 196.97C115.679 195.463 114.461 194.241 112.959 194.241C111.458 194.241 110.24 195.463 110.24 196.97C110.24 198.477 111.458 199.699 112.959 199.699Z" fill="black"/>
<path d="M131.36 194.241L131.723 195.423C132.085 196.424 132.085 197.607 131.723 198.607L131.36 199.699C134.351 199.699 136.799 197.243 136.799 194.241H131.36Z" fill="black"/>
<path d="M144.639 199.699C146.141 199.699 147.358 198.477 147.358 196.97C147.358 195.463 146.141 194.241 144.639 194.241C143.137 194.241 141.92 195.463 141.92 196.97C141.92 198.477 143.137 199.699 144.639 199.699Z" fill="black"/>
<path d="M160.479 199.699C161.981 199.699 163.198 198.477 163.198 196.97C163.198 195.463 161.981 194.241 160.479 194.241C158.977 194.241 157.76 195.463 157.76 196.97C157.76 198.477 158.977 199.699 160.479 199.699Z" fill="black"/>
<path d="M173.759 199.699H171.04C169.499 199.699 168.32 198.516 168.32 196.97V194.241H173.759V199.699Z" fill="black"/>
<path d="M173.6 194.241H179.038V199.699H173.6V194.241Z" fill="black"/>
<path d="M178.88 194.241H184.318V199.699H178.88V194.241Z" fill="black"/>
<path d="M184.16 194.241H189.599V199.699H184.16V194.241Z" fill="black"/>
<path d="M189.44 194.241H194.879V199.699H189.44V194.241Z" fill="black"/>
<path d="M197.439 199.699H194.72V194.241H200.158V196.97C200.158 198.516 198.98 199.699 197.439 199.699ZM68 67.0601V85.6073C68 95.9407 76.184 104.154 86.48 104.154C96.776 104.154 104.96 95.9407 104.96 85.6073C104.96 75.2738 96.776 67.0601 86.48 67.0601H68ZM86.48 98.8553C79.088 98.8553 73.28 93.0261 73.28 85.6073V72.3593H86.48C93.872 72.3593 99.68 78.1884 99.68 85.6073C99.68 93.0261 93.872 98.8553 86.48 98.8553Z" fill="black"/>
<path d="M86.4796 93.556C81.9916 93.556 78.5596 90.1116 78.5596 85.6072V77.6584H86.4796C90.9676 77.6584 94.3996 81.1029 94.3996 85.6072C94.3996 90.1116 90.9676 93.556 86.4796 93.556Z" fill="#2A5650"/>
<path d="M200 67.0601H181.52C171.224 67.0601 163.04 75.2738 163.04 85.6073C163.04 95.9407 171.224 104.154 181.52 104.154C191.816 104.154 200 95.9407 200 85.6073V67.0601ZM168.32 85.6073C168.32 78.1884 174.128 72.3593 181.52 72.3593H194.72V85.6073C194.72 93.0261 188.912 98.8553 181.52 98.8553C174.128 98.8553 168.32 93.0261 168.32 85.6073Z" fill="black"/>
<path d="M173.6 85.6072C173.6 81.1029 177.032 77.6584 181.52 77.6584H189.44V85.6072C189.44 90.1116 186.008 93.556 181.52 93.556C177.032 93.556 173.6 90.1116 173.6 85.6072Z" fill="#2A5650"/>
<path d="M68 199.54H86.48C96.776 199.54 104.96 191.326 104.96 180.993C104.96 170.659 96.776 162.446 86.48 162.446C76.184 162.446 68 170.659 68 180.993V199.54ZM99.68 180.993C99.68 188.412 93.872 194.241 86.48 194.241H73.28V180.993C73.28 173.574 79.088 167.745 86.48 167.745C93.872 167.745 99.68 173.574 99.68 180.993Z" fill="black"/>
<path d="M94.3996 180.993C94.3996 185.497 90.9676 188.942 86.4796 188.942H78.5596V180.993C78.5596 176.488 81.9916 173.044 86.4796 173.044C90.9676 173.044 94.3996 176.488 94.3996 180.993Z" fill="#2A5650"/>
</g>
</g>
<defs>
<clipPath id="clip0_1003_16831">
<rect x="0.5" y="0.5" width="200" height="200" rx="16" fill="white"/>
</clipPath>
<clipPath id="clip1_1003_16831">
<rect width="165" height="207" fill="white" transform="translate(51.5 50.5)"/>
</clipPath>
</defs>
</svg>
